<?xml version="1.0" encoding="UTF-8"?><svg id="uuid-e2f9e0b8-08c8-4ae0-8f22-ebcb6a24b5c1" xmlns="http://www.w3.org/2000/svg" viewBox="0 0 501 502.62"><defs><style>.uuid-7f9d0c74-5f6b-4599-9b50-e5a7bd4145a4{opacity:.5;}.uuid-054be53a-53d6-44fa-a36e-06e15ae78a17{fill:#fff;}.uuid-054be53a-53d6-44fa-a36e-06e15ae78a17,.uuid-be528318-0579-43f3-a5f6-7ef99ae1affb{stroke-width:0px;}.uuid-be528318-0579-43f3-a5f6-7ef99ae1affb{fill:#fff5d0;}</style></defs><g class="uuid-7f9d0c74-5f6b-4599-9b50-e5a7bd4145a4"><rect class="uuid-054be53a-53d6-44fa-a36e-06e15ae78a17" x="128.54" y="29.78" width="246.91" height="444.44"/></g><g class="uuid-7f9d0c74-5f6b-4599-9b50-e5a7bd4145a4"><rect class="uuid-be528318-0579-43f3-a5f6-7ef99ae1affb" x="131.32" y="32.56" width="241.36" height="438.89"/></g><path class="uuid-054be53a-53d6-44fa-a36e-06e15ae78a17" d="M113.73,501.38V2.62h276.54v498.76H113.73ZM127.92,474.84h248.15V29.16H127.92v445.69Z"/><path class="uuid-054be53a-53d6-44fa-a36e-06e15ae78a17" d="M389.65,3.24v497.52H114.35V3.24h275.3M127.3,475.46h249.39V28.54H127.3v446.93M390.89,2H113.11v500h277.78V2h0ZM128.54,474.22V29.78h246.91v444.44h-246.91Z"/><path class="uuid-be528318-0579-43f3-a5f6-7ef99ae1affb" d="M144.12,2c-1.12,14.3-13.08,25.56-27.68,25.56-1.12,0-2.23-.07-3.33-.21V2h31.01Z"/><path class="uuid-be528318-0579-43f3-a5f6-7ef99ae1affb" d="M229.17,29.78h-49.89c4.51-9.21,13.99-15.56,24.94-15.56s20.43,6.34,24.94,15.56Z"/><path class="uuid-be528318-0579-43f3-a5f6-7ef99ae1affb" d="M326.44,4.78c0,7.06-5.72,12.78-12.78,12.78s-12.78-5.72-12.78-12.78c0-.96.1-1.89.3-2.78h24.96c.2.89.3,1.82.3,2.78Z"/><path class="uuid-be528318-0579-43f3-a5f6-7ef99ae1affb" d="M390.89,18.68v61.09c-6.07-1.63-11.41-5.04-15.43-9.63V29.78h-1.22c4.14-5.32,9.96-9.29,16.66-11.1Z"/><path class="uuid-be528318-0579-43f3-a5f6-7ef99ae1affb" d="M386.44,117c0,5.83-4.72,10.56-10.56,10.56-.14,0-.29,0-.43-.01v-21.09c.14-.01.29-.01.43-.01,5.83,0,10.56,4.72,10.56,10.56Z"/><path class="uuid-be528318-0579-43f3-a5f6-7ef99ae1affb" d="M390.89,226.26v47.04c-5.53-6.27-8.89-14.5-8.89-23.52s3.36-17.26,8.89-23.52Z"/><path class="uuid-be528318-0579-43f3-a5f6-7ef99ae1affb" d="M390.89,181.79v10.42c-1.3,1.24-3.06,2.01-5,2.01-3.99,0-7.22-3.23-7.22-7.22s3.23-7.22,7.22-7.22c1.94,0,3.7.77,5,2.01Z"/><path class="uuid-be528318-0579-43f3-a5f6-7ef99ae1affb" d="M386.44,380.89c0,6.57-4.74,12.02-10.99,13.12v-26.24c6.24,1.1,10.99,6.56,10.99,13.12Z"/><path class="uuid-be528318-0579-43f3-a5f6-7ef99ae1affb" d="M390.89,315.56v21.78c-5.07-1.03-8.89-5.52-8.89-10.89s3.82-9.86,8.89-10.89Z"/><path class="uuid-be528318-0579-43f3-a5f6-7ef99ae1affb" d="M390.89,463.03v38.97h-18.17c-.48-2.33-.72-4.74-.72-7.22,0-13.71,7.63-25.63,18.89-31.74Z"/><circle class="uuid-be528318-0579-43f3-a5f6-7ef99ae1affb" cx="307.56" cy="493.11" r="6.67"/><circle class="uuid-be528318-0579-43f3-a5f6-7ef99ae1affb" cx="247" cy="487" r="9.44"/><path class="uuid-be528318-0579-43f3-a5f6-7ef99ae1affb" d="M162.6,502h-38.98c2.01-8.91,9.97-15.56,19.49-15.56s17.48,6.64,19.49,15.56Z"/><path class="uuid-be528318-0579-43f3-a5f6-7ef99ae1affb" d="M214.22,477.56c0,10.43-8.46,18.89-18.89,18.89s-18.89-8.46-18.89-18.89c0-1.13.1-2.26.3-3.33h37.18c.2,1.08.3,2.2.3,3.33Z"/><path class="uuid-be528318-0579-43f3-a5f6-7ef99ae1affb" d="M118.67,107c0,5.01-2.13,9.52-5.56,12.66v-25.31c3.42,3.13,5.56,7.64,5.56,12.66Z"/><path class="uuid-be528318-0579-43f3-a5f6-7ef99ae1affb" d="M128.54,147.56v17.78c-3.22-1.66-5.43-5.01-5.43-8.89s2.21-7.23,5.43-8.89Z"/><path class="uuid-be528318-0579-43f3-a5f6-7ef99ae1affb" d="M123.11,224.78c0,9.39-3.82,17.89-10,24.02v-48.04c6.18,6.13,10,14.63,10,24.02Z"/><path class="uuid-be528318-0579-43f3-a5f6-7ef99ae1affb" d="M128.54,338.14v26.6c-5.71-1.72-9.88-7.02-9.88-13.3s4.17-11.58,9.88-13.3Z"/><path class="uuid-be528318-0579-43f3-a5f6-7ef99ae1affb" d="M123.11,412c0,7.76-3.97,14.59-10,18.56v-37.11c6.03,3.97,10,10.8,10,18.56Z"/></svg>